{
    "asset" : {
        "copyright" : "Saini Monteiro",
        "generator" : "Khronos glTF Blender I/O v1.0.5",
        "version" : "2.0"
    },
    "scene" : 0,
    "scenes" : [
        {
            "name" : "Scene",
            "nodes" : [
                0,
                1,
                2
            ]
        }
    ],
    "nodes" : [
        {
            "mesh" : 0,
            "name" : "korkki"
        },
        {
            "mesh" : 1,
            "name" : "pullo"
        },
        {
            "mesh" : 2,
            "name" : "teksti"
        }
    ],
    "materials" : [
        {
            "doubleSided" : true,
            "name" : "metalli",
            "pbrMetallicRoughness" : {
                "baseColorFactor" : [
                    0.800000011920929,
                    0.800000011920929,
                    0.800000011920929,
                    1
                ],
                "metallicFactor" : 1,
                "roughnessFactor" : 0.28125
            }
        },
        {
            "doubleSided" : true,
            "name" : "valkoinenMuovi",
            "pbrMetallicRoughness" : {
                "baseColorFactor" : [
                    0.800000011920929,
                    0.800000011920929,
                    0.800000011920929,
                    1
                ],
                "metallicFactor" : 0,
                "roughnessFactor" : 0.25
            }
        },
        {
            "doubleSided" : true,
            "name" : "punainenMuovi",
            "pbrMetallicRoughness" : {
                "baseColorFactor" : [
                    0.8000000715255737,
                    0,
                    0.004125172272324562,
                    1
                ],
                "metallicFactor" : 0,
                "roughnessFactor" : 0.25
            }
        },
        {
            "alphaMode" : "BLEND",
            "doubleSided" : true,
            "name" : "lasi",
            "pbrMetallicRoughness" : {
                "baseColorFactor" : [
                    0.800000011920929,
                    0.800000011920929,
                    0.800000011920929,
                    1
                ],
                "metallicFactor" : 0,
                "roughnessFactor" : 0
            }
        },
        {
            "alphaMode" : "BLEND",
            "doubleSided" : true,
            "name" : "juoma",
            "pbrMetallicRoughness" : {
                "baseColorFactor" : [
                    1,
                    0.6735380291938782,
                    0,
                    1
                ],
                "metallicFactor" : 0,
                "roughnessFactor" : 1
            }
        }
    ],
    "meshes" : [
        {
            "name" : "Plane",
            "primitives" : [
                {
                    "attributes" : {
                        "POSITION" : 0,
                        "NORMAL" : 1,
                        "TEXCOORD_0" : 2
                    },
                    "indices" : 3,
                    "material" : 0
                },
                {
                    "attributes" : {
                        "POSITION" : 4,
                        "NORMAL" : 5,
                        "TEXCOORD_0" : 6
                    },
                    "indices" : 7,
                    "material" : 1
                },
                {
                    "attributes" : {
                        "POSITION" : 8,
                        "NORMAL" : 9,
                        "TEXCOORD_0" : 10
                    },
                    "indices" : 11,
                    "material" : 2
                }
            ]
        },
        {
            "name" : "Plane.001",
            "primitives" : [
                {
                    "attributes" : {
                        "POSITION" : 12,
                        "NORMAL" : 13,
                        "TEXCOORD_0" : 14
                    },
                    "indices" : 15,
                    "material" : 3
                },
                {
                    "attributes" : {
                        "POSITION" : 16,
                        "NORMAL" : 17,
                        "TEXCOORD_0" : 18
                    },
                    "indices" : 19,
                    "material" : 4
                }
            ]
        },
        {
            "name" : "Plane.002",
            "primitives" : [
                {
                    "attributes" : {
                        "POSITION" : 20,
                        "NORMAL" : 21,
                        "TEXCOORD_0" : 22
                    },
                    "indices" : 23,
                    "material" : 0
                },
                {
                    "attributes" : {
                        "POSITION" : 24,
                        "NORMAL" : 25,
                        "TEXCOORD_0" : 26
                    },
                    "indices" : 27,
                    "material" : 2
                }
            ]
        }
    ],
    "accessors" : [
        {
            "bufferView" : 0,
            "componentType" : 5126,
            "count" : 536,
            "max" : [
                1.7507305145263672,
                21.763673782348633,
                2.835883617401123
            ],
            "min" : [
                -0.7651745676994324,
                16.425514221191406,
                -2.835883617401123
            ],
            "type" : "VEC3"
        },
        {
            "bufferView" : 1,
            "componentType" : 5126,
            "count" : 536,
            "type" : "VEC3"
        },
        {
            "bufferView" : 2,
            "componentType" : 5126,
            "count" : 536,
            "type" : "VEC2"
        },
        {
            "bufferView" : 3,
            "componentType" : 5123,
            "count" : 3192,
            "type" : "SCALAR"
        },
        {
            "bufferView" : 4,
            "componentType" : 5126,
            "count" : 182,
            "max" : [
                1.5059845447540283,
                22.529888153076172,
                1.5059846639633179
            ],
            "min" : [
                -1.5059847831726074,
                20.090368270874023,
                -1.5059850215911865
            ],
            "type" : "VEC3"
        },
        {
            "bufferView" : 5,
            "componentType" : 5126,
            "count" : 182,
            "type" : "VEC3"
        },
        {
            "bufferView" : 6,
            "componentType" : 5126,
            "count" : 182,
            "type" : "VEC2"
        },
        {
            "bufferView" : 7,
            "componentType" : 5123,
            "count" : 960,
            "type" : "SCALAR"
        },
        {
            "bufferView" : 8,
            "componentType" : 5126,
            "count" : 80,
            "max" : [
                1.5435378551483154,
                21.27739143371582,
                1.5435380935668945
            ],
            "min" : [
                -1.543538212776184,
                20.94253921508789,
                -1.5435383319854736
            ],
            "type" : "VEC3"
        },
        {
            "bufferView" : 9,
            "componentType" : 5126,
            "count" : 80,
            "type" : "VEC3"
        },
        {
            "bufferView" : 10,
            "componentType" : 5126,
            "count" : 80,
            "type" : "VEC2"
        },
        {
            "bufferView" : 11,
            "componentType" : 5123,
            "count" : 360,
            "type" : "SCALAR"
        },
        {
            "bufferView" : 12,
            "componentType" : 5126,
            "count" : 1022,
            "max" : [
                4.300000190734863,
                21,
                4.3000006675720215
            ],
            "min" : [
                -4.30000114440918,
                -10,
                -4.300001621246338
            ],
            "type" : "VEC3"
        },
        {
            "bufferView" : 13,
            "componentType" : 5126,
            "count" : 1022,
            "type" : "VEC3"
        },
        {
            "bufferView" : 14,
            "componentType" : 5126,
            "count" : 1022,
            "type" : "VEC2"
        },
        {
            "bufferView" : 15,
            "componentType" : 5123,
            "count" : 6120,
            "type" : "SCALAR"
        },
        {
            "bufferView" : 16,
            "componentType" : 5126,
            "count" : 302,
            "max" : [
                3.8425686359405518,
                14.669357299804688,
                3.842569351196289
            ],
            "min" : [
                -3.8425698280334473,
                -9.394789695739746,
                -3.8425700664520264
            ],
            "type" : "VEC3"
        },
        {
            "bufferView" : 17,
            "componentType" : 5126,
            "count" : 302,
            "type" : "VEC3"
        },
        {
            "bufferView" : 18,
            "componentType" : 5126,
            "count" : 302,
            "type" : "VEC2"
        },
        {
            "bufferView" : 19,
            "componentType" : 5123,
            "count" : 1800,
            "type" : "SCALAR"
        },
        {
            "bufferView" : 20,
            "componentType" : 5126,
            "count" : 2976,
            "max" : [
                9.745075225830078,
                4.505061626434326,
                9.726431846618652
            ],
            "min" : [
                -4.1439056396484375,
                0.6436475515365601,
                -7.439932823181152
            ],
            "type" : "VEC3"
        },
        {
            "bufferView" : 21,
            "componentType" : 5126,
            "count" : 2976,
            "type" : "VEC3"
        },
        {
            "bufferView" : 22,
            "componentType" : 5126,
            "count" : 2976,
            "type" : "VEC2"
        },
        {
            "bufferView" : 23,
            "componentType" : 5123,
            "count" : 3900,
            "type" : "SCALAR"
        },
        {
            "bufferView" : 24,
            "componentType" : 5126,
            "count" : 1154,
            "max" : [
                9.745075225830078,
                4.505061626434326,
                9.726431846618652
            ],
            "min" : [
                -4.1439056396484375,
                0.6436475515365601,
                -7.439932823181152
            ],
            "type" : "VEC3"
        },
        {
            "bufferView" : 25,
            "componentType" : 5126,
            "count" : 1154,
            "type" : "VEC3"
        },
        {
            "bufferView" : 26,
            "componentType" : 5126,
            "count" : 1154,
            "type" : "VEC2"
        },
        {
            "bufferView" : 27,
            "componentType" : 5123,
            "count" : 1188,
            "type" : "SCALAR"
        }
    ],
    "bufferViews" : [
        {
            "buffer" : 0,
            "byteLength" : 6432,
            "byteOffset" : 0
        },
        {
            "buffer" : 0,
            "byteLength" : 6432,
            "byteOffset" : 6432
        },
        {
            "buffer" : 0,
            "byteLength" : 4288,
            "byteOffset" : 12864
        },
        {
            "buffer" : 0,
            "byteLength" : 6384,
            "byteOffset" : 17152
        },
        {
            "buffer" : 0,
            "byteLength" : 2184,
            "byteOffset" : 23536
        },
        {
            "buffer" : 0,
            "byteLength" : 2184,
            "byteOffset" : 25720
        },
        {
            "buffer" : 0,
            "byteLength" : 1456,
            "byteOffset" : 27904
        },
        {
            "buffer" : 0,
            "byteLength" : 1920,
            "byteOffset" : 29360
        },
        {
            "buffer" : 0,
            "byteLength" : 960,
            "byteOffset" : 31280
        },
        {
            "buffer" : 0,
            "byteLength" : 960,
            "byteOffset" : 32240
        },
        {
            "buffer" : 0,
            "byteLength" : 640,
            "byteOffset" : 33200
        },
        {
            "buffer" : 0,
            "byteLength" : 720,
            "byteOffset" : 33840
        },
        {
            "buffer" : 0,
            "byteLength" : 12264,
            "byteOffset" : 34560
        },
        {
            "buffer" : 0,
            "byteLength" : 12264,
            "byteOffset" : 46824
        },
        {
            "buffer" : 0,
            "byteLength" : 8176,
            "byteOffset" : 59088
        },
        {
            "buffer" : 0,
            "byteLength" : 12240,
            "byteOffset" : 67264
        },
        {
            "buffer" : 0,
            "byteLength" : 3624,
            "byteOffset" : 79504
        },
        {
            "buffer" : 0,
            "byteLength" : 3624,
            "byteOffset" : 83128
        },
        {
            "buffer" : 0,
            "byteLength" : 2416,
            "byteOffset" : 86752
        },
        {
            "buffer" : 0,
            "byteLength" : 3600,
            "byteOffset" : 89168
        },
        {
            "buffer" : 0,
            "byteLength" : 35712,
            "byteOffset" : 92768
        },
        {
            "buffer" : 0,
            "byteLength" : 35712,
            "byteOffset" : 128480
        },
        {
            "buffer" : 0,
            "byteLength" : 23808,
            "byteOffset" : 164192
        },
        {
            "buffer" : 0,
            "byteLength" : 7800,
            "byteOffset" : 188000
        },
        {
            "buffer" : 0,
            "byteLength" : 13848,
            "byteOffset" : 195800
        },
        {
            "buffer" : 0,
            "byteLength" : 13848,
            "byteOffset" : 209648
        },
        {
            "buffer" : 0,
            "byteLength" : 9232,
            "byteOffset" : 223496
        },
        {
            "buffer" : 0,
            "byteLength" : 2376,
            "byteOffset" : 232728
        }
    ],
    "buffers" : [
        {
            "byteLength" : 235104,
            "uri" : "data:application/octet-stream;base64,"
        }
    ]
}
